<svg width="512" height="512" viewBox="0 0 512 512" fill="none" xmlns="http://www.w3.org/2000/svg">
<g clip-path="url(#clip0_45_4)">
<path d="M256 512C397.385 512 512 397.385 512 256C512 114.615 397.385 0 256 0C114.615 0 0 114.615 0 256C0 397.385 114.615 512 256 512Z" fill="white"/>
<path d="M191.869 242.17C191.01 241.955 190.258 241.848 189.613 241.848C188.969 241.633 188.217 241.525 187.357 241.525C181.771 241.525 174.359 244.641 165.121 250.871C167.27 251.516 169.525 251.838 171.889 251.838C176.4 251.838 180.482 250.979 184.135 249.26C187.787 247.326 190.365 244.963 191.869 242.17ZM179.623 350.451C182.631 348.518 186.068 345.832 189.936 342.395C193.373 339.387 197.562 335.627 202.504 331.115C207.445 326.389 213.031 320.588 219.262 313.713L239.242 340.461C235.16 344.113 229.682 348.625 222.807 353.996C216.146 359.367 208.842 364.631 200.893 369.787C192.943 374.943 184.887 379.348 176.723 383C168.773 386.652 161.576 388.586 155.131 388.801H153.842C147.396 388.801 140.521 387.619 133.217 385.256C126.127 383.107 119.359 379.885 112.914 375.588C106.684 371.291 101.205 366.027 96.4785 359.797C91.9668 353.566 88.959 346.369 87.4551 338.205C87.2402 336.916 87.0254 335.627 86.8105 334.338C86.8105 332.834 86.8105 331.33 86.8105 329.826C86.8105 323.166 87.8848 316.291 90.0332 309.201C92.3965 301.896 95.2969 294.807 98.7344 287.932C102.172 281.057 106.039 274.611 110.336 268.596C114.633 262.58 118.715 257.424 122.582 253.127C120.219 248.186 117.963 242.277 115.814 235.402C113.881 228.312 112.914 221.008 112.914 213.488C112.914 207.258 113.773 201.135 115.492 195.119C117.211 189.104 120.219 183.518 124.516 178.361C129.457 172.131 135.58 166.33 142.885 160.959C150.404 155.373 158.031 150.646 165.766 146.779C173.715 142.697 181.449 139.582 188.969 137.434C196.488 135.07 202.934 133.889 208.305 133.889C209.809 133.889 211.098 133.996 212.172 134.211C213.461 134.426 214.643 134.748 215.717 135.178C218.939 136.896 222.592 139.26 226.674 142.268C230.326 144.846 234.516 148.283 239.242 152.58C244.184 156.877 249.77 162.248 256 168.693L227.641 177.717C225.277 171.701 221.195 167.619 215.395 165.471C209.809 163.322 204.115 162.248 198.314 162.248C189.936 162.248 183.383 163.43 178.656 165.793C176.078 167.082 172.318 169.768 167.377 173.85C162.436 177.717 157.494 182.229 152.553 187.385C147.826 192.326 143.637 197.375 139.984 202.531C136.332 207.688 134.506 212.092 134.506 215.744C134.506 215.959 134.506 216.174 134.506 216.389C134.721 216.389 134.828 216.496 134.828 216.711C135.258 219.504 136.439 222.512 138.373 225.734C140.521 228.957 142.992 232.072 145.785 235.08C150.297 232.717 155.238 230.461 160.609 228.312C165.98 226.164 171.352 224.23 176.723 222.512C182.094 220.793 187.143 219.396 191.869 218.322C196.811 217.248 201.107 216.711 204.76 216.711C209.701 216.711 212.709 217.678 213.783 219.611C214.643 220.9 215.18 222.512 215.395 224.445C215.824 226.379 216.039 228.42 216.039 230.568C216.039 234.006 215.502 237.766 214.428 241.848C213.568 245.715 212.172 249.475 210.238 253.127C208.305 256.564 205.941 259.787 203.148 262.795C200.355 265.803 197.133 268.059 193.48 269.562C187.68 271.711 180.805 272.785 172.855 272.785C167.914 272.785 162.973 272.463 158.031 271.818C153.09 270.959 148.471 269.885 144.174 268.596C140.736 271.389 137.514 274.074 134.506 276.652C131.713 279.016 129.564 281.271 128.061 283.42C126.342 285.783 124.73 289.006 123.227 293.088C121.723 297.17 120.326 301.789 119.037 306.945C117.963 312.102 117.104 317.473 116.459 323.059C115.814 328.43 115.492 333.586 115.492 338.527C115.492 343.039 115.814 347.229 116.459 351.096C117.104 354.748 118.285 357.434 120.004 359.152C121.508 360.871 123.441 362.16 125.805 363.02C128.383 363.664 131.283 363.986 134.506 363.986C138.158 363.986 142.025 363.557 146.107 362.697C150.404 361.838 154.594 360.764 158.676 359.475C162.758 358.186 166.625 356.789 170.277 355.285C173.93 353.566 177.045 351.955 179.623 350.451ZM372.66 242.17C371.801 241.955 371.049 241.848 370.404 241.848C369.76 241.633 369.008 241.525 368.148 241.525C362.562 241.525 355.15 244.641 345.912 250.871C348.061 251.516 350.316 251.838 352.68 251.838C357.191 251.838 361.273 250.979 364.926 249.26C368.578 247.326 371.156 244.963 372.66 242.17ZM360.414 350.451C363.422 348.518 366.859 345.832 370.727 342.395C374.164 339.387 378.354 335.627 383.295 331.115C388.236 326.389 393.822 320.588 400.053 313.713L420.033 340.461C415.951 344.113 410.473 348.625 403.598 353.996C396.938 359.367 389.633 364.631 381.684 369.787C373.734 374.943 365.678 379.348 357.514 383C349.564 386.652 342.367 388.586 335.922 388.801H334.633C328.188 388.801 321.312 387.619 314.008 385.256C306.918 383.107 300.15 379.885 293.705 375.588C287.475 371.291 281.996 366.027 277.27 359.797C272.758 353.566 269.75 346.369 268.246 338.205C268.031 336.916 267.816 335.627 267.602 334.338C267.602 332.834 267.602 331.33 267.602 329.826C267.602 323.166 268.676 316.291 270.824 309.201C273.188 301.896 276.088 294.807 279.525 287.932C282.963 281.057 286.83 274.611 291.127 268.596C295.424 262.58 299.506 257.424 303.373 253.127C301.01 248.186 298.754 242.277 296.605 235.402C294.672 228.312 293.705 221.008 293.705 213.488C293.705 207.258 294.564 201.135 296.283 195.119C298.002 189.104 301.01 183.518 305.307 178.361C310.248 172.131 316.371 166.33 323.676 160.959C331.195 155.373 338.822 150.646 346.557 146.779C354.506 142.697 362.24 139.582 369.76 137.434C377.279 135.07 383.725 133.889 389.096 133.889C390.6 133.889 391.889 133.996 392.963 134.211C394.252 134.426 395.434 134.748 396.508 135.178C399.73 136.896 403.383 139.26 407.465 142.268C411.117 144.846 415.307 148.283 420.033 152.58C424.975 156.877 430.561 162.248 436.791 168.693L408.432 177.717C406.068 171.701 401.986 167.619 396.186 165.471C390.6 163.322 384.906 162.248 379.105 162.248C370.727 162.248 364.174 163.43 359.447 165.793C356.869 167.082 353.109 169.768 348.168 173.85C343.227 177.717 338.285 182.229 333.344 187.385C328.617 192.326 324.428 197.375 320.775 202.531C317.123 207.688 315.297 212.092 315.297 215.744C315.297 215.959 315.297 216.174 315.297 216.389C315.512 216.389 315.619 216.496 315.619 216.711C316.049 219.504 317.23 222.512 319.164 225.734C321.312 228.957 323.783 232.072 326.576 235.08C331.088 232.717 336.029 230.461 341.4 228.312C346.771 226.164 352.143 224.23 357.514 222.512C362.885 220.793 367.934 219.396 372.66 218.322C377.602 217.248 381.898 216.711 385.551 216.711C390.492 216.711 393.5 217.678 394.574 219.611C395.434 220.9 395.971 222.512 396.186 224.445C396.615 226.379 396.83 228.42 396.83 230.568C396.83 234.006 396.293 237.766 395.219 241.848C394.359 245.715 392.963 249.475 391.029 253.127C389.096 256.564 386.732 259.787 383.939 262.795C381.146 265.803 377.924 268.059 374.271 269.562C368.471 271.711 361.596 272.785 353.646 272.785C348.705 272.785 343.764 272.463 338.822 271.818C333.881 270.959 329.262 269.885 324.965 268.596C321.527 271.389 318.305 274.074 315.297 276.652C312.504 279.016 310.355 281.271 308.852 283.42C307.133 285.783 305.521 289.006 304.018 293.088C302.514 297.17 301.117 301.789 299.828 306.945C298.754 312.102 297.895 317.473 297.25 323.059C296.605 328.43 296.283 333.586 296.283 338.527C296.283 343.039 296.605 347.229 297.25 351.096C297.895 354.748 299.076 357.434 300.795 359.152C302.299 360.871 304.232 362.16 306.596 363.02C309.174 363.664 312.074 363.986 315.297 363.986C318.949 363.986 322.816 363.557 326.898 362.697C331.195 361.838 335.385 360.764 339.467 359.475C343.549 358.186 347.416 356.789 351.068 355.285C354.721 353.566 357.836 351.955 360.414 350.451Z" fill="#1C327E"/>
</g>
<defs>
<clipPath id="clip0_45_4">
<rect width="512" height="512" fill="white"/>
</clipPath>
</defs>
</svg>
